# xmcd CD database file
#
# Track frame offsets:
#	150
#	24372
#	52241
#	84699
#	98529
#	116060
#	134068
#	158371
#	187433
#
# Disc length: 2813 seconds
#
# Revision: 3
# Processed by: cddbd v1.5.2PL0 Copyright (c) Steve Scherf et al.
# Submitted via: CDex 1.51
#
DISCID=7a0afb09
DTITLE=朱哲琴 演唱會 - 新樂府
DYEAR=2004
DGENRE=New Age
TTITLE0=在那遙遠的地方
TTITLE1=??
TTITLE2=阿姐鼓
TTITLE3=天涯歌女
TTITLE4=????????
TTITLE5=????
TTITLE6=星星索 微風吹動我的船繁
TTITLE7=???
TTITLE8=丹頂鶴的故事
EXTD=YEAR: 2004
EXTT0=
EXTT1=
EXTT2=
EXTT3=
EXTT4=
EXTT5=
EXTT6=
EXTT7=
EXTT8=
PLAYORDER=
